<svg viewBoxSize="575" data-root-id="4957685184926" xmlns="http://www.w3.org/2000/svg" xmlns:xlink="http://www.w3.org/1999/xlink" xmlnsSerif="http://www.serif.com/" viewBox="0.00000762939453125 0 180.7349853515625 195.40499877929688" version="1.1" xml:space="preserve" height="182.509765625" width="168.80786298722214" y="153.8699951171875" x="189.62774822998045" preserveAspectRatio="xMinYMin" zoom="1" editorType="buyer" data-layer-role="icon" style="fill-rule: evenodd; clip-rule: evenodd; stroke-linejoin: round; stroke-miterlimit: 2; position: absolute; height: 182.51px; width: 168.808px; top: 0px; left: 0px;"><path d="M0.357,95.488c4.093,46.787 42.858,83.52 90.01,83.52c47.152,-0 85.918,-36.733 90.011,-83.52c0.236,2.7 0.357,5.435 0.357,8.199c-0,50.621 -40.492,91.718 -90.368,91.718c-49.875,0 -90.367,-41.097 -90.367,-91.718c0,-2.764 0.121,-5.499 0.357,-8.199Z" name="Layer %{number}" zoom="1" data-layer-id="6446222784926" style="fill: rgb(124, 80, 111); fill-opacity: 1;"></path><path d="M22.148,39.01c-18.515,39.705 -4.331,87.459 33.76,109.451c38.091,21.991 86.539,10.398 111.667,-25.489c-1.068,2.291 -2.246,4.557 -3.535,6.79c-23.61,40.893 -75.489,55.207 -115.78,31.945c-40.291,-23.262 -53.834,-75.348 -30.224,-116.241c1.289,-2.232 2.662,-4.386 4.112,-6.456Z" name="Layer %{number}" zoom="1" data-layer-id="2924097384926" style="fill: rgb(241, 162, 86); fill-opacity: 1;"></path><path d="M83.082,-0c-36.818,13.4 -58.048,52.57 -47.867,90.567c10.181,37.996 48.151,61.303 86.738,54.499c-2.125,0.773 -4.303,1.461 -6.53,2.058c-40.792,10.93 -82.652,-12.826 -93.422,-53.017c-10.769,-40.191 13.606,-81.694 54.397,-92.624c2.228,-0.597 4.458,-1.09 6.684,-1.483Z" name="Layer %{number}" zoom="1" data-layer-id="2420137484926" style="fill: rgb(241, 197, 0); fill-opacity: 1;"></path><path d="M130.184,5.141c-34.388,-6.064 -68.227,14.707 -77.3,48.57c-9.074,33.862 9.846,68.77 42.659,80.713c-1.984,-0.35 -3.972,-0.79 -5.957,-1.321c-36.353,-9.741 -58.076,-46.73 -48.478,-82.548c9.597,-35.818 46.903,-56.989 83.257,-47.248c1.985,0.531 3.926,1.144 5.819,1.834Z" name="Layer %{number}" zoom="1" data-layer-id="0657266584926" style="fill: rgb(17, 18, 47); fill-opacity: 1;"></path><path d="M166.272,33.111c-24.298,-20.389 -60.352,-19.418 -82.87,3.1c-22.518,22.517 -23.489,58.572 -3.1,82.87c-1.402,-1.177 -2.766,-2.425 -4.086,-3.745c-24.174,-24.174 -24.463,-63.138 -0.645,-86.956c23.818,-23.818 62.782,-23.529 86.956,0.645c1.32,1.32 2.569,2.684 3.745,4.086Z" name="Layer %{number}" zoom="1" data-layer-id="3655158184926" style="fill: rgb(193, 147, 159); fill-opacity: 1;"></path></svg>